<?xml version="1.0" standalone="no"?>
<!DOCTYPE svg PUBLIC "-//W3C//DTD SVG 20010904//EN"
 "http://www.w3.org/TR/2001/REC-SVG-20010904/DTD/svg10.dtd">
<svg version="1.0" xmlns="http://www.w3.org/2000/svg"
 width="502.000000pt" height="502.000000pt" viewBox="0 0 502.000000 502.000000"
 preserveAspectRatio="xMidYMid meet">
<metadata>
Created by potrace 1.14, written by Peter Selinger 2001-2017
</metadata>
<g transform="translate(0.000000,502.000000) scale(0.100000,-0.100000)"
fill="#000000" stroke="none">
<path d="M2082 4781 c0 -170 -1 -182 -23 -222 -54 -97 -199 -109 -264 -23 -20
26 -43 65 -125 211 -23 40 -45 75 -50 78 -9 6 -25 -3 -165 -84 -44 -25 -88
-50 -97 -56 -10 -5 -115 -66 -233 -134 l-215 -123 25 -42 c108 -185 155 -273
156 -290 8 -109 -49 -178 -155 -189 -32 -4 -59 8 -199 88 -154 88 -162 92
-175 73 -12 -16 -113 -189 -174 -297 -10 -18 -64 -111 -118 -206 -55 -95 -100
-176 -100 -181 1 -5 53 -38 117 -74 169 -94 199 -116 219 -158 37 -77 8 -169
-65 -210 -38 -22 -54 -23 -218 -25 l-178 -2 -3 -406 -2 -405 179 -1 c196 -1
233 -9 270 -62 40 -55 44 -115 15 -177 -15 -31 -61 -74 -79 -74 -4 0 -19 -8
-33 -19 -15 -10 -58 -36 -97 -57 -114 -62 -125 -69 -125 -77 0 -7 367 -649
394 -688 10 -15 23 -10 111 43 144 85 205 115 247 121 84 11 171 -68 171 -156
0 -42 -19 -86 -83 -192 -16 -27 -35 -61 -42 -75 -7 -14 -15 -27 -18 -30 -3 -3
-13 -19 -22 -35 -19 -34 -21 -31 56 -74 17 -10 150 -87 296 -171 146 -84 280
-161 298 -172 18 -10 37 -16 42 -13 4 3 34 51 66 107 121 216 143 239 229 241
63 1 116 -30 143 -85 22 -43 24 -59 24 -222 l0 -176 408 0 408 0 0 178 c0 98
5 188 11 202 37 89 136 128 223 86 41 -20 60 -45 153 -208 36 -65 71 -120 75
-123 5 -3 27 6 49 20 23 14 43 25 45 25 3 0 58 31 123 69 153 89 174 101 341
196 78 44 142 85 142 90 0 6 -30 62 -67 125 -92 160 -104 184 -107 222 -4 37
16 92 42 122 27 30 90 54 130 49 33 -4 184 -81 302 -154 40 -25 45 -26 55 -11
27 40 395 683 395 690 0 4 -60 40 -133 81 -72 41 -145 83 -161 94 -74 52 -80
188 -10 248 42 36 83 42 260 42 l174 0 0 407 0 408 -162 0 c-90 -1 -180 3
-201 7 -72 14 -134 108 -121 183 11 60 48 95 185 174 197 113 183 87 112 209
-33 57 -70 120 -81 139 -11 19 -75 131 -142 248 l-123 212 -36 -21 c-221 -131
-285 -163 -327 -162 -74 3 -125 40 -149 110 -23 66 -15 88 98 282 37 62 67
119 67 125 -1 11 -674 401 -693 401 -6 0 -48 -62 -92 -138 -44 -75 -93 -150
-107 -166 -70 -74 -208 -50 -253 45 -14 30 -17 67 -17 215 l0 179 -408 0 -409
0 1 -179z m1291 -580 c22 -17 26 -10 -169 -292 -90 -130 -166 -243 -169 -250
-3 -9 17 -25 61 -48 165 -85 344 -252 451 -418 138 -216 204 -458 198 -723
-10 -429 -237 -813 -617 -1044 -104 -63 -295 -137 -393 -151 -23 -3 -52 -8
-65 -11 -68 -16 -288 -11 -390 8 -58 11 -115 20 -127 21 -17 2 -55 -44 -195
-238 -103 -143 -181 -241 -193 -244 -10 -2 -24 4 -31 13 -10 14 2 51 68 209
43 106 85 206 93 222 24 55 45 107 45 115 0 4 -18 17 -39 28 -67 35 -83 45
-159 100 -126 91 -260 239 -331 365 -12 20 -29 52 -39 70 -46 80 -109 263
-118 344 -3 17 -8 53 -13 80 -12 61 -7 314 7 373 6 25 13 59 16 75 8 43 49
159 85 238 138 303 422 556 747 663 l81 26 23 57 c13 31 33 79 46 106 48 109
63 143 99 227 22 53 43 88 53 90 10 2 229 3 488 3 379 0 475 -3 487 -14z"/>
<path d="M2060 3620 c-176 -74 -282 -143 -404 -264 -237 -233 -353 -512 -354
-849 0 -124 25 -280 63 -387 64 -182 199 -383 336 -499 106 -90 149 -120 227
-160 l43 -22 15 38 c9 21 33 79 54 128 21 50 91 216 155 370 64 154 123 294
131 310 7 17 15 41 16 54 l3 24 -363 0 c-298 -1 -366 2 -377 13 -12 12 -9 26
19 93 63 145 98 226 116 266 29 63 55 122 103 235 25 58 100 230 166 383 67
153 121 282 119 286 -2 5 -32 -4 -68 -19z"/>
<path d="M2930 3513 c-58 -85 -118 -172 -250 -363 -157 -226 -200 -290 -200
-294 0 -3 161 -4 358 -4 198 1 364 -2 370 -6 22 -13 12 -44 -31 -103 -142
-191 -996 -1378 -993 -1380 1 -2 38 -10 82 -20 99 -21 331 -23 429 -4 476 92
834 430 951 896 46 182 38 436 -18 620 -76 249 -245 482 -453 627 -67 46 -174
108 -188 108 -2 0 -28 -35 -57 -77z"/>
</g>
</svg>
